<mxfile host="app.diagrams.net" modified="2023-07-13T09:12:07.746Z" agent="Mozilla/5.0 (Windows NT 10.0; Win64; x64) AppleWebKit/537.36 (KHTML, like Gecko) Chrome/114.0.0.0 Safari/537.36 Edg/114.0.1823.67" etag="ydhUjvE92ZK5BHuXBKQD" version="21.2.3" type="github">
  <diagram id="C5RBs43oDa-KdzZeNtuy" name="Page-1">
    <mxGraphModel dx="1058" dy="4240" grid="1" gridSize="10" guides="1" tooltips="1" connect="1" arrows="1" fold="1" page="1" pageScale="1" pageWidth="1200" pageHeight="1600" math="0" shadow="0">
      <root>
        <mxCell id="WIyWlLk6GJQsqaUBKTNV-0" />
        <mxCell id="WIyWlLk6GJQsqaUBKTNV-1" parent="WIyWlLk6GJQsqaUBKTNV-0" />
        <mxCell id="LSCxjEW6fyr0qKY7dvI5-0" value="genUserData" style="html=1;whiteSpace=wrap;" vertex="1" parent="WIyWlLk6GJQsqaUBKTNV-1">
          <mxGeometry x="70" y="660" width="110" height="50" as="geometry" />
        </mxCell>
        <mxCell id="LSCxjEW6fyr0qKY7dvI5-2" style="edgeStyle=orthogonalEdgeStyle;rounded=0;orthogonalLoop=1;jettySize=auto;html=1;entryX=1;entryY=0.5;entryDx=0;entryDy=0;endArrow=block;endFill=1;" edge="1" parent="WIyWlLk6GJQsqaUBKTNV-1" source="LSCxjEW6fyr0qKY7dvI5-1" target="LSCxjEW6fyr0qKY7dvI5-0">
          <mxGeometry relative="1" as="geometry" />
        </mxCell>
        <mxCell id="LSCxjEW6fyr0qKY7dvI5-1" value="genPortRefUserData" style="html=1;whiteSpace=wrap;fontSize=12;fontStyle=0;fillColor=#f5f5f5;fontColor=#333333;strokeColor=#666666;" vertex="1" parent="WIyWlLk6GJQsqaUBKTNV-1">
          <mxGeometry x="320" y="10" width="125" height="40" as="geometry" />
        </mxCell>
        <mxCell id="LSCxjEW6fyr0qKY7dvI5-21" style="edgeStyle=orthogonalEdgeStyle;rounded=0;orthogonalLoop=1;jettySize=auto;html=1;entryX=1;entryY=0.5;entryDx=0;entryDy=0;" edge="1" parent="WIyWlLk6GJQsqaUBKTNV-1" source="LSCxjEW6fyr0qKY7dvI5-3" target="LSCxjEW6fyr0qKY7dvI5-0">
          <mxGeometry relative="1" as="geometry" />
        </mxCell>
        <mxCell id="LSCxjEW6fyr0qKY7dvI5-3" value="genLibraryUserData" style="html=1;whiteSpace=wrap;fontSize=12;fontStyle=0;fillColor=#f5f5f5;fontColor=#333333;strokeColor=#666666;" vertex="1" parent="WIyWlLk6GJQsqaUBKTNV-1">
          <mxGeometry x="320" y="610" width="125" height="40" as="geometry" />
        </mxCell>
        <mxCell id="LSCxjEW6fyr0qKY7dvI5-18" style="edgeStyle=orthogonalEdgeStyle;rounded=0;orthogonalLoop=1;jettySize=auto;html=1;entryX=1;entryY=0.5;entryDx=0;entryDy=0;" edge="1" parent="WIyWlLk6GJQsqaUBKTNV-1" source="LSCxjEW6fyr0qKY7dvI5-4" target="LSCxjEW6fyr0qKY7dvI5-0">
          <mxGeometry relative="1" as="geometry" />
        </mxCell>
        <mxCell id="LSCxjEW6fyr0qKY7dvI5-4" value="genNetUserData" style="html=1;whiteSpace=wrap;fontSize=12;fontStyle=0;fillColor=#f5f5f5;fontColor=#333333;strokeColor=#666666;" vertex="1" parent="WIyWlLk6GJQsqaUBKTNV-1">
          <mxGeometry x="320" y="250" width="125" height="40" as="geometry" />
        </mxCell>
        <mxCell id="LSCxjEW6fyr0qKY7dvI5-17" style="edgeStyle=orthogonalEdgeStyle;rounded=0;orthogonalLoop=1;jettySize=auto;html=1;entryX=1;entryY=0.5;entryDx=0;entryDy=0;" edge="1" parent="WIyWlLk6GJQsqaUBKTNV-1" source="LSCxjEW6fyr0qKY7dvI5-5" target="LSCxjEW6fyr0qKY7dvI5-0">
          <mxGeometry relative="1" as="geometry" />
        </mxCell>
        <mxCell id="LSCxjEW6fyr0qKY7dvI5-5" value="genInstanceUserData" style="html=1;whiteSpace=wrap;fontSize=12;fontStyle=0;fillColor=#f5f5f5;fontColor=#333333;strokeColor=#666666;" vertex="1" parent="WIyWlLk6GJQsqaUBKTNV-1">
          <mxGeometry x="320" y="130" width="125" height="40" as="geometry" />
        </mxCell>
        <mxCell id="LSCxjEW6fyr0qKY7dvI5-22" style="edgeStyle=orthogonalEdgeStyle;rounded=0;orthogonalLoop=1;jettySize=auto;html=1;entryX=1;entryY=0.5;entryDx=0;entryDy=0;" edge="1" parent="WIyWlLk6GJQsqaUBKTNV-1" source="LSCxjEW6fyr0qKY7dvI5-6" target="LSCxjEW6fyr0qKY7dvI5-0">
          <mxGeometry relative="1" as="geometry" />
        </mxCell>
        <mxCell id="LSCxjEW6fyr0qKY7dvI5-6" value="genPortBusUserData" style="html=1;whiteSpace=wrap;fontSize=12;fontStyle=0;fillColor=#f5f5f5;fontColor=#333333;strokeColor=#666666;" vertex="1" parent="WIyWlLk6GJQsqaUBKTNV-1">
          <mxGeometry x="320" y="720" width="125" height="40" as="geometry" />
        </mxCell>
        <mxCell id="LSCxjEW6fyr0qKY7dvI5-19" style="edgeStyle=orthogonalEdgeStyle;rounded=0;orthogonalLoop=1;jettySize=auto;html=1;entryX=1;entryY=0.5;entryDx=0;entryDy=0;" edge="1" parent="WIyWlLk6GJQsqaUBKTNV-1" source="LSCxjEW6fyr0qKY7dvI5-7" target="LSCxjEW6fyr0qKY7dvI5-0">
          <mxGeometry relative="1" as="geometry" />
        </mxCell>
        <mxCell id="LSCxjEW6fyr0qKY7dvI5-7" value="genPortUserData" style="html=1;whiteSpace=wrap;fontSize=12;fontStyle=0;fillColor=#f5f5f5;fontColor=#333333;strokeColor=#666666;" vertex="1" parent="WIyWlLk6GJQsqaUBKTNV-1">
          <mxGeometry x="320" y="370" width="125" height="40" as="geometry" />
        </mxCell>
        <mxCell id="LSCxjEW6fyr0qKY7dvI5-20" style="edgeStyle=orthogonalEdgeStyle;rounded=0;orthogonalLoop=1;jettySize=auto;html=1;entryX=1;entryY=0.5;entryDx=0;entryDy=0;" edge="1" parent="WIyWlLk6GJQsqaUBKTNV-1" source="LSCxjEW6fyr0qKY7dvI5-8" target="LSCxjEW6fyr0qKY7dvI5-0">
          <mxGeometry relative="1" as="geometry">
            <mxPoint x="310" y="700.0000000000005" as="targetPoint" />
          </mxGeometry>
        </mxCell>
        <mxCell id="LSCxjEW6fyr0qKY7dvI5-8" value="genNetlistUserData" style="html=1;whiteSpace=wrap;fontSize=12;fontStyle=0;fillColor=#f5f5f5;fontColor=#333333;strokeColor=#666666;" vertex="1" parent="WIyWlLk6GJQsqaUBKTNV-1">
          <mxGeometry x="320" y="500" width="125" height="40" as="geometry" />
        </mxCell>
        <mxCell id="LSCxjEW6fyr0qKY7dvI5-23" style="edgeStyle=orthogonalEdgeStyle;rounded=0;orthogonalLoop=1;jettySize=auto;html=1;entryX=1;entryY=0.5;entryDx=0;entryDy=0;" edge="1" parent="WIyWlLk6GJQsqaUBKTNV-1" source="LSCxjEW6fyr0qKY7dvI5-9" target="LSCxjEW6fyr0qKY7dvI5-0">
          <mxGeometry relative="1" as="geometry" />
        </mxCell>
        <mxCell id="LSCxjEW6fyr0qKY7dvI5-9" value="genNetBusUserData" style="html=1;whiteSpace=wrap;fontSize=12;fontStyle=0;fillColor=#f5f5f5;fontColor=#333333;strokeColor=#666666;" vertex="1" parent="WIyWlLk6GJQsqaUBKTNV-1">
          <mxGeometry x="320" y="830" width="125" height="40" as="geometry" />
        </mxCell>
        <mxCell id="LSCxjEW6fyr0qKY7dvI5-24" style="edgeStyle=orthogonalEdgeStyle;rounded=0;orthogonalLoop=1;jettySize=auto;html=1;entryX=1;entryY=0.5;entryDx=0;entryDy=0;" edge="1" parent="WIyWlLk6GJQsqaUBKTNV-1" source="LSCxjEW6fyr0qKY7dvI5-10" target="LSCxjEW6fyr0qKY7dvI5-0">
          <mxGeometry relative="1" as="geometry" />
        </mxCell>
        <mxCell id="LSCxjEW6fyr0qKY7dvI5-10" value="libLibraryUserData" style="html=1;whiteSpace=wrap;fontSize=12;fontStyle=0;fillColor=#f5f5f5;fontColor=#333333;strokeColor=#666666;" vertex="1" parent="WIyWlLk6GJQsqaUBKTNV-1">
          <mxGeometry x="320" y="1220" width="125" height="40" as="geometry" />
        </mxCell>
        <mxCell id="LSCxjEW6fyr0qKY7dvI5-25" style="edgeStyle=orthogonalEdgeStyle;rounded=0;orthogonalLoop=1;jettySize=auto;html=1;entryX=1;entryY=0.5;entryDx=0;entryDy=0;" edge="1" parent="WIyWlLk6GJQsqaUBKTNV-1" source="LSCxjEW6fyr0qKY7dvI5-11" target="LSCxjEW6fyr0qKY7dvI5-0">
          <mxGeometry relative="1" as="geometry" />
        </mxCell>
        <mxCell id="LSCxjEW6fyr0qKY7dvI5-11" value="libPortUserData" style="html=1;whiteSpace=wrap;fontSize=12;fontStyle=0;fillColor=#f5f5f5;fontColor=#333333;strokeColor=#666666;" vertex="1" parent="WIyWlLk6GJQsqaUBKTNV-1">
          <mxGeometry x="320" y="1330" width="125" height="40" as="geometry" />
        </mxCell>
        <mxCell id="LSCxjEW6fyr0qKY7dvI5-26" style="edgeStyle=orthogonalEdgeStyle;rounded=0;orthogonalLoop=1;jettySize=auto;html=1;entryX=1;entryY=0.5;entryDx=0;entryDy=0;" edge="1" parent="WIyWlLk6GJQsqaUBKTNV-1" source="LSCxjEW6fyr0qKY7dvI5-12" target="LSCxjEW6fyr0qKY7dvI5-0">
          <mxGeometry relative="1" as="geometry" />
        </mxCell>
        <mxCell id="LSCxjEW6fyr0qKY7dvI5-12" value="libPortBusUserData" style="html=1;whiteSpace=wrap;fontSize=12;fontStyle=0;fillColor=#f5f5f5;fontColor=#333333;strokeColor=#666666;" vertex="1" parent="WIyWlLk6GJQsqaUBKTNV-1">
          <mxGeometry x="320" y="1550" width="125" height="40" as="geometry" />
        </mxCell>
        <mxCell id="LSCxjEW6fyr0qKY7dvI5-27" style="edgeStyle=orthogonalEdgeStyle;rounded=0;orthogonalLoop=1;jettySize=auto;html=1;entryX=1;entryY=0.5;entryDx=0;entryDy=0;" edge="1" parent="WIyWlLk6GJQsqaUBKTNV-1" source="LSCxjEW6fyr0qKY7dvI5-13" target="LSCxjEW6fyr0qKY7dvI5-0">
          <mxGeometry relative="1" as="geometry" />
        </mxCell>
        <mxCell id="LSCxjEW6fyr0qKY7dvI5-13" value="libNetlistUserData" style="html=1;whiteSpace=wrap;fontSize=12;fontStyle=0;fillColor=#f5f5f5;fontColor=#333333;strokeColor=#666666;" vertex="1" parent="WIyWlLk6GJQsqaUBKTNV-1">
          <mxGeometry x="320" y="1440" width="125" height="40" as="geometry" />
        </mxCell>
        <mxCell id="LSCxjEW6fyr0qKY7dvI5-50" style="edgeStyle=orthogonalEdgeStyle;rounded=0;orthogonalLoop=1;jettySize=auto;html=1;fontSize=12;fontStyle=0" edge="1" parent="WIyWlLk6GJQsqaUBKTNV-1" source="LSCxjEW6fyr0qKY7dvI5-28" target="LSCxjEW6fyr0qKY7dvI5-1">
          <mxGeometry relative="1" as="geometry" />
        </mxCell>
        <mxCell id="LSCxjEW6fyr0qKY7dvI5-28" value="upfPortRefUserData" style="html=1;whiteSpace=wrap;fontSize=12;fontStyle=0;fillColor=#fff2cc;strokeColor=#d6b656;" vertex="1" parent="WIyWlLk6GJQsqaUBKTNV-1">
          <mxGeometry x="583.75" y="10" width="135" height="40" as="geometry" />
        </mxCell>
        <mxCell id="LSCxjEW6fyr0qKY7dvI5-52" style="edgeStyle=orthogonalEdgeStyle;rounded=0;orthogonalLoop=1;jettySize=auto;html=1;fontSize=12;fontStyle=0" edge="1" parent="WIyWlLk6GJQsqaUBKTNV-1" source="LSCxjEW6fyr0qKY7dvI5-37" target="LSCxjEW6fyr0qKY7dvI5-28">
          <mxGeometry relative="1" as="geometry" />
        </mxCell>
        <mxCell id="LSCxjEW6fyr0qKY7dvI5-37" value="dftDbPortRefUserData" style="html=1;whiteSpace=wrap;fontSize=12;fontStyle=0;fillColor=#d5e8d4;strokeColor=#82b366;" vertex="1" parent="WIyWlLk6GJQsqaUBKTNV-1">
          <mxGeometry x="823.75" y="40" width="143" height="40" as="geometry" />
        </mxCell>
        <mxCell id="LSCxjEW6fyr0qKY7dvI5-51" style="edgeStyle=orthogonalEdgeStyle;rounded=0;orthogonalLoop=1;jettySize=auto;html=1;entryX=1;entryY=0.5;entryDx=0;entryDy=0;fontSize=12;fontStyle=0" edge="1" parent="WIyWlLk6GJQsqaUBKTNV-1" source="LSCxjEW6fyr0qKY7dvI5-49" target="LSCxjEW6fyr0qKY7dvI5-28">
          <mxGeometry relative="1" as="geometry" />
        </mxCell>
        <mxCell id="LSCxjEW6fyr0qKY7dvI5-49" value="pwrDbPortRefUserData" style="html=1;whiteSpace=wrap;fontSize=12;fontStyle=0;fillColor=#dae8fc;strokeColor=#6c8ebf;" vertex="1" parent="WIyWlLk6GJQsqaUBKTNV-1">
          <mxGeometry x="823.75" y="-20" width="143" height="40" as="geometry" />
        </mxCell>
        <mxCell id="LSCxjEW6fyr0qKY7dvI5-57" style="edgeStyle=orthogonalEdgeStyle;rounded=0;orthogonalLoop=1;jettySize=auto;html=1;entryX=1;entryY=0.5;entryDx=0;entryDy=0;fontSize=12;fontStyle=0" edge="1" parent="WIyWlLk6GJQsqaUBKTNV-1" source="LSCxjEW6fyr0qKY7dvI5-58" target="LSCxjEW6fyr0qKY7dvI5-5">
          <mxGeometry relative="1" as="geometry">
            <mxPoint x="444.75" y="150" as="targetPoint" />
          </mxGeometry>
        </mxCell>
        <mxCell id="LSCxjEW6fyr0qKY7dvI5-58" value="upfInstanceUserData" style="html=1;whiteSpace=wrap;fontSize=12;fontStyle=0;fillColor=#fff2cc;strokeColor=#d6b656;" vertex="1" parent="WIyWlLk6GJQsqaUBKTNV-1">
          <mxGeometry x="583.75" y="130" width="135" height="40" as="geometry" />
        </mxCell>
        <mxCell id="LSCxjEW6fyr0qKY7dvI5-59" style="edgeStyle=orthogonalEdgeStyle;rounded=0;orthogonalLoop=1;jettySize=auto;html=1;fontSize=12;fontStyle=0" edge="1" parent="WIyWlLk6GJQsqaUBKTNV-1" source="LSCxjEW6fyr0qKY7dvI5-60" target="LSCxjEW6fyr0qKY7dvI5-58">
          <mxGeometry relative="1" as="geometry" />
        </mxCell>
        <mxCell id="LSCxjEW6fyr0qKY7dvI5-60" value="dftDbInstanceUserData" style="html=1;whiteSpace=wrap;fontSize=12;fontStyle=0;fillColor=#d5e8d4;strokeColor=#82b366;" vertex="1" parent="WIyWlLk6GJQsqaUBKTNV-1">
          <mxGeometry x="823.75" y="160" width="143" height="40" as="geometry" />
        </mxCell>
        <mxCell id="LSCxjEW6fyr0qKY7dvI5-61" style="edgeStyle=orthogonalEdgeStyle;rounded=0;orthogonalLoop=1;jettySize=auto;html=1;entryX=1;entryY=0.5;entryDx=0;entryDy=0;fontSize=12;fontStyle=0" edge="1" parent="WIyWlLk6GJQsqaUBKTNV-1" source="LSCxjEW6fyr0qKY7dvI5-62" target="LSCxjEW6fyr0qKY7dvI5-58">
          <mxGeometry relative="1" as="geometry" />
        </mxCell>
        <mxCell id="LSCxjEW6fyr0qKY7dvI5-62" value="pwrDbInstanceUserData" style="html=1;whiteSpace=wrap;fontSize=12;fontStyle=0;fillColor=#dae8fc;strokeColor=#6c8ebf;" vertex="1" parent="WIyWlLk6GJQsqaUBKTNV-1">
          <mxGeometry x="823.75" y="100" width="143" height="40" as="geometry" />
        </mxCell>
        <mxCell id="LSCxjEW6fyr0qKY7dvI5-63" style="edgeStyle=orthogonalEdgeStyle;rounded=0;orthogonalLoop=1;jettySize=auto;html=1;fontStyle=0;entryX=1;entryY=0.5;entryDx=0;entryDy=0;fontSize=12;" edge="1" parent="WIyWlLk6GJQsqaUBKTNV-1" source="LSCxjEW6fyr0qKY7dvI5-64" target="LSCxjEW6fyr0qKY7dvI5-4">
          <mxGeometry relative="1" as="geometry">
            <mxPoint x="444.75" y="270" as="targetPoint" />
          </mxGeometry>
        </mxCell>
        <mxCell id="LSCxjEW6fyr0qKY7dvI5-64" value="upfNetUserData" style="html=1;whiteSpace=wrap;fontStyle=0;fontSize=12;fillColor=#fff2cc;strokeColor=#d6b656;" vertex="1" parent="WIyWlLk6GJQsqaUBKTNV-1">
          <mxGeometry x="583.75" y="250" width="135" height="40" as="geometry" />
        </mxCell>
        <mxCell id="LSCxjEW6fyr0qKY7dvI5-65" style="edgeStyle=orthogonalEdgeStyle;rounded=0;orthogonalLoop=1;jettySize=auto;html=1;fontStyle=0;fontSize=12;" edge="1" parent="WIyWlLk6GJQsqaUBKTNV-1" source="LSCxjEW6fyr0qKY7dvI5-66" target="LSCxjEW6fyr0qKY7dvI5-64">
          <mxGeometry relative="1" as="geometry" />
        </mxCell>
        <mxCell id="LSCxjEW6fyr0qKY7dvI5-66" value="dftDbNetUserData" style="html=1;whiteSpace=wrap;fontStyle=0;fontSize=12;fillColor=#d5e8d4;strokeColor=#82b366;" vertex="1" parent="WIyWlLk6GJQsqaUBKTNV-1">
          <mxGeometry x="823.75" y="280" width="143" height="40" as="geometry" />
        </mxCell>
        <mxCell id="LSCxjEW6fyr0qKY7dvI5-67" style="edgeStyle=orthogonalEdgeStyle;rounded=0;orthogonalLoop=1;jettySize=auto;html=1;entryX=1;entryY=0.5;entryDx=0;entryDy=0;fontStyle=0;fontSize=12;" edge="1" parent="WIyWlLk6GJQsqaUBKTNV-1" source="LSCxjEW6fyr0qKY7dvI5-68" target="LSCxjEW6fyr0qKY7dvI5-64">
          <mxGeometry relative="1" as="geometry" />
        </mxCell>
        <mxCell id="LSCxjEW6fyr0qKY7dvI5-68" value="pwrDbNetUserData" style="html=1;whiteSpace=wrap;fontStyle=0;fontSize=12;fillColor=#dae8fc;strokeColor=#6c8ebf;" vertex="1" parent="WIyWlLk6GJQsqaUBKTNV-1">
          <mxGeometry x="823.75" y="220" width="143" height="40" as="geometry" />
        </mxCell>
        <mxCell id="LSCxjEW6fyr0qKY7dvI5-99" style="edgeStyle=orthogonalEdgeStyle;rounded=0;orthogonalLoop=1;jettySize=auto;html=1;entryX=1;entryY=0.5;entryDx=0;entryDy=0;fontSize=12;fontStyle=0" edge="1" parent="WIyWlLk6GJQsqaUBKTNV-1" source="LSCxjEW6fyr0qKY7dvI5-70" target="LSCxjEW6fyr0qKY7dvI5-7">
          <mxGeometry relative="1" as="geometry" />
        </mxCell>
        <mxCell id="LSCxjEW6fyr0qKY7dvI5-70" value="upfPortUserData" style="html=1;whiteSpace=wrap;fontStyle=0;fontSize=12;fillColor=#fff2cc;strokeColor=#d6b656;" vertex="1" parent="WIyWlLk6GJQsqaUBKTNV-1">
          <mxGeometry x="583.75" y="370" width="135" height="40" as="geometry" />
        </mxCell>
        <mxCell id="LSCxjEW6fyr0qKY7dvI5-102" style="edgeStyle=orthogonalEdgeStyle;rounded=0;orthogonalLoop=1;jettySize=auto;html=1;entryX=1;entryY=0.5;entryDx=0;entryDy=0;fontSize=12;fontStyle=0" edge="1" parent="WIyWlLk6GJQsqaUBKTNV-1" source="LSCxjEW6fyr0qKY7dvI5-72" target="LSCxjEW6fyr0qKY7dvI5-70">
          <mxGeometry relative="1" as="geometry" />
        </mxCell>
        <mxCell id="LSCxjEW6fyr0qKY7dvI5-72" value="dftDbPortUserData" style="html=1;whiteSpace=wrap;fontStyle=0;fontSize=12;fillColor=#d5e8d4;strokeColor=#82b366;" vertex="1" parent="WIyWlLk6GJQsqaUBKTNV-1">
          <mxGeometry x="823.75" y="410" width="143" height="40" as="geometry" />
        </mxCell>
        <mxCell id="LSCxjEW6fyr0qKY7dvI5-73" style="edgeStyle=orthogonalEdgeStyle;rounded=0;orthogonalLoop=1;jettySize=auto;html=1;entryX=1;entryY=0.5;entryDx=0;entryDy=0;fontStyle=0;fontSize=12;" edge="1" parent="WIyWlLk6GJQsqaUBKTNV-1" source="LSCxjEW6fyr0qKY7dvI5-74" target="LSCxjEW6fyr0qKY7dvI5-70">
          <mxGeometry relative="1" as="geometry" />
        </mxCell>
        <mxCell id="LSCxjEW6fyr0qKY7dvI5-74" value="pwrDbPortUserData" style="html=1;whiteSpace=wrap;fontStyle=0;fontSize=12;fillColor=#dae8fc;strokeColor=#6c8ebf;" vertex="1" parent="WIyWlLk6GJQsqaUBKTNV-1">
          <mxGeometry x="823.75" y="340" width="143" height="40" as="geometry" />
        </mxCell>
        <mxCell id="LSCxjEW6fyr0qKY7dvI5-75" style="edgeStyle=orthogonalEdgeStyle;rounded=0;orthogonalLoop=1;jettySize=auto;html=1;fontStyle=0;entryX=1;entryY=0.5;entryDx=0;entryDy=0;fontSize=12;" edge="1" parent="WIyWlLk6GJQsqaUBKTNV-1" source="LSCxjEW6fyr0qKY7dvI5-76" target="LSCxjEW6fyr0qKY7dvI5-8">
          <mxGeometry relative="1" as="geometry">
            <mxPoint x="444.75" y="580" as="targetPoint" />
          </mxGeometry>
        </mxCell>
        <mxCell id="LSCxjEW6fyr0qKY7dvI5-76" value="upfNetlistUserData" style="html=1;whiteSpace=wrap;fontStyle=0;fontSize=12;fillColor=#fff2cc;strokeColor=#d6b656;" vertex="1" parent="WIyWlLk6GJQsqaUBKTNV-1">
          <mxGeometry x="583.75" y="500" width="135" height="40" as="geometry" />
        </mxCell>
        <mxCell id="LSCxjEW6fyr0qKY7dvI5-77" style="edgeStyle=orthogonalEdgeStyle;rounded=0;orthogonalLoop=1;jettySize=auto;html=1;fontStyle=0;fontSize=12;" edge="1" parent="WIyWlLk6GJQsqaUBKTNV-1" source="LSCxjEW6fyr0qKY7dvI5-78" target="LSCxjEW6fyr0qKY7dvI5-76">
          <mxGeometry relative="1" as="geometry" />
        </mxCell>
        <mxCell id="LSCxjEW6fyr0qKY7dvI5-78" value="dftDbNetlistUserData" style="html=1;whiteSpace=wrap;fontStyle=0;fontSize=12;fillColor=#d5e8d4;strokeColor=#82b366;" vertex="1" parent="WIyWlLk6GJQsqaUBKTNV-1">
          <mxGeometry x="823.75" y="530" width="143" height="40" as="geometry" />
        </mxCell>
        <mxCell id="LSCxjEW6fyr0qKY7dvI5-79" style="edgeStyle=orthogonalEdgeStyle;rounded=0;orthogonalLoop=1;jettySize=auto;html=1;entryX=1;entryY=0.5;entryDx=0;entryDy=0;fontStyle=0;fontSize=12;" edge="1" parent="WIyWlLk6GJQsqaUBKTNV-1" source="LSCxjEW6fyr0qKY7dvI5-80" target="LSCxjEW6fyr0qKY7dvI5-76">
          <mxGeometry relative="1" as="geometry" />
        </mxCell>
        <mxCell id="LSCxjEW6fyr0qKY7dvI5-80" value="pwrDbNetlistUserData" style="html=1;whiteSpace=wrap;fontStyle=0;fontSize=12;fillColor=#dae8fc;strokeColor=#6c8ebf;" vertex="1" parent="WIyWlLk6GJQsqaUBKTNV-1">
          <mxGeometry x="823.75" y="470" width="143" height="40" as="geometry" />
        </mxCell>
        <mxCell id="LSCxjEW6fyr0qKY7dvI5-81" style="edgeStyle=orthogonalEdgeStyle;rounded=0;orthogonalLoop=1;jettySize=auto;html=1;fontStyle=0;entryX=1;entryY=0.5;entryDx=0;entryDy=0;fontSize=12;" edge="1" parent="WIyWlLk6GJQsqaUBKTNV-1" source="LSCxjEW6fyr0qKY7dvI5-82" target="LSCxjEW6fyr0qKY7dvI5-3">
          <mxGeometry relative="1" as="geometry">
            <mxPoint x="445" y="690" as="targetPoint" />
          </mxGeometry>
        </mxCell>
        <mxCell id="LSCxjEW6fyr0qKY7dvI5-82" value="upfLibraryUserData" style="html=1;whiteSpace=wrap;fontStyle=0;fontSize=12;fillColor=#fff2cc;strokeColor=#d6b656;" vertex="1" parent="WIyWlLk6GJQsqaUBKTNV-1">
          <mxGeometry x="584" y="610" width="135" height="40" as="geometry" />
        </mxCell>
        <mxCell id="LSCxjEW6fyr0qKY7dvI5-83" style="edgeStyle=orthogonalEdgeStyle;rounded=0;orthogonalLoop=1;jettySize=auto;html=1;fontStyle=0;fontSize=12;" edge="1" parent="WIyWlLk6GJQsqaUBKTNV-1" source="LSCxjEW6fyr0qKY7dvI5-84" target="LSCxjEW6fyr0qKY7dvI5-82">
          <mxGeometry relative="1" as="geometry" />
        </mxCell>
        <mxCell id="LSCxjEW6fyr0qKY7dvI5-84" value="dftDbLibraryUserData" style="html=1;whiteSpace=wrap;fontStyle=0;fontSize=12;fillColor=#d5e8d4;strokeColor=#82b366;" vertex="1" parent="WIyWlLk6GJQsqaUBKTNV-1">
          <mxGeometry x="824" y="640" width="143" height="40" as="geometry" />
        </mxCell>
        <mxCell id="LSCxjEW6fyr0qKY7dvI5-85" style="edgeStyle=orthogonalEdgeStyle;rounded=0;orthogonalLoop=1;jettySize=auto;html=1;entryX=1;entryY=0.5;entryDx=0;entryDy=0;fontStyle=0;fontSize=12;" edge="1" parent="WIyWlLk6GJQsqaUBKTNV-1" source="LSCxjEW6fyr0qKY7dvI5-86" target="LSCxjEW6fyr0qKY7dvI5-82">
          <mxGeometry relative="1" as="geometry" />
        </mxCell>
        <mxCell id="LSCxjEW6fyr0qKY7dvI5-86" value="pwrDbLibraryUserData" style="html=1;whiteSpace=wrap;fontStyle=0;fontSize=12;fillColor=#dae8fc;strokeColor=#6c8ebf;" vertex="1" parent="WIyWlLk6GJQsqaUBKTNV-1">
          <mxGeometry x="824" y="580" width="143" height="40" as="geometry" />
        </mxCell>
        <mxCell id="LSCxjEW6fyr0qKY7dvI5-97" style="edgeStyle=orthogonalEdgeStyle;rounded=0;orthogonalLoop=1;jettySize=auto;html=1;entryX=1;entryY=0.5;entryDx=0;entryDy=0;fontStyle=0;fontSize=12;" edge="1" parent="WIyWlLk6GJQsqaUBKTNV-1" source="LSCxjEW6fyr0qKY7dvI5-98" target="LSCxjEW6fyr0qKY7dvI5-9">
          <mxGeometry relative="1" as="geometry">
            <mxPoint x="719" y="850" as="targetPoint" />
          </mxGeometry>
        </mxCell>
        <mxCell id="LSCxjEW6fyr0qKY7dvI5-98" value="pwrDbNetBusUserData" style="html=1;whiteSpace=wrap;fontStyle=0;fontSize=12;fillColor=#dae8fc;strokeColor=#6c8ebf;" vertex="1" parent="WIyWlLk6GJQsqaUBKTNV-1">
          <mxGeometry x="824" y="800" width="143" height="40" as="geometry" />
        </mxCell>
        <mxCell id="LSCxjEW6fyr0qKY7dvI5-123" style="edgeStyle=orthogonalEdgeStyle;rounded=0;orthogonalLoop=1;jettySize=auto;html=1;entryX=1;entryY=0.5;entryDx=0;entryDy=0;" edge="1" parent="WIyWlLk6GJQsqaUBKTNV-1" source="LSCxjEW6fyr0qKY7dvI5-103" target="LSCxjEW6fyr0qKY7dvI5-10">
          <mxGeometry relative="1" as="geometry" />
        </mxCell>
        <mxCell id="LSCxjEW6fyr0qKY7dvI5-103" value="upfLibLibraryUserData" style="html=1;whiteSpace=wrap;fontStyle=0;fontSize=12;fillColor=#fff2cc;strokeColor=#d6b656;" vertex="1" parent="WIyWlLk6GJQsqaUBKTNV-1">
          <mxGeometry x="583.5" y="1220" width="135" height="40" as="geometry" />
        </mxCell>
        <mxCell id="LSCxjEW6fyr0qKY7dvI5-104" style="edgeStyle=orthogonalEdgeStyle;rounded=0;orthogonalLoop=1;jettySize=auto;html=1;fontStyle=0;fontSize=12;" edge="1" parent="WIyWlLk6GJQsqaUBKTNV-1" source="LSCxjEW6fyr0qKY7dvI5-105" target="LSCxjEW6fyr0qKY7dvI5-103">
          <mxGeometry relative="1" as="geometry" />
        </mxCell>
        <mxCell id="LSCxjEW6fyr0qKY7dvI5-105" value="dftLibLibraryUserData" style="html=1;whiteSpace=wrap;fontStyle=0;fontSize=12;fillColor=#d5e8d4;strokeColor=#82b366;" vertex="1" parent="WIyWlLk6GJQsqaUBKTNV-1">
          <mxGeometry x="823.5" y="1250" width="143" height="40" as="geometry" />
        </mxCell>
        <mxCell id="LSCxjEW6fyr0qKY7dvI5-106" style="edgeStyle=orthogonalEdgeStyle;rounded=0;orthogonalLoop=1;jettySize=auto;html=1;entryX=1;entryY=0.5;entryDx=0;entryDy=0;fontStyle=0;fontSize=12;" edge="1" parent="WIyWlLk6GJQsqaUBKTNV-1" source="LSCxjEW6fyr0qKY7dvI5-107" target="LSCxjEW6fyr0qKY7dvI5-103">
          <mxGeometry relative="1" as="geometry" />
        </mxCell>
        <mxCell id="LSCxjEW6fyr0qKY7dvI5-107" value="pwrLibLibraryUserData" style="html=1;whiteSpace=wrap;fontStyle=0;fontSize=12;fillColor=#dae8fc;strokeColor=#6c8ebf;" vertex="1" parent="WIyWlLk6GJQsqaUBKTNV-1">
          <mxGeometry x="823.5" y="1190" width="143" height="40" as="geometry" />
        </mxCell>
        <mxCell id="LSCxjEW6fyr0qKY7dvI5-124" style="edgeStyle=orthogonalEdgeStyle;rounded=0;orthogonalLoop=1;jettySize=auto;html=1;entryX=1;entryY=0.5;entryDx=0;entryDy=0;" edge="1" parent="WIyWlLk6GJQsqaUBKTNV-1" source="LSCxjEW6fyr0qKY7dvI5-108" target="LSCxjEW6fyr0qKY7dvI5-11">
          <mxGeometry relative="1" as="geometry" />
        </mxCell>
        <mxCell id="LSCxjEW6fyr0qKY7dvI5-108" value="upfLibPortUserData" style="html=1;whiteSpace=wrap;fontStyle=0;fontSize=12;fillColor=#fff2cc;strokeColor=#d6b656;" vertex="1" parent="WIyWlLk6GJQsqaUBKTNV-1">
          <mxGeometry x="583.75" y="1330" width="135" height="40" as="geometry" />
        </mxCell>
        <mxCell id="LSCxjEW6fyr0qKY7dvI5-109" style="edgeStyle=orthogonalEdgeStyle;rounded=0;orthogonalLoop=1;jettySize=auto;html=1;fontStyle=0;fontSize=12;" edge="1" parent="WIyWlLk6GJQsqaUBKTNV-1" source="LSCxjEW6fyr0qKY7dvI5-110" target="LSCxjEW6fyr0qKY7dvI5-108">
          <mxGeometry relative="1" as="geometry" />
        </mxCell>
        <mxCell id="LSCxjEW6fyr0qKY7dvI5-110" value="dftLibPortUserData" style="html=1;whiteSpace=wrap;fontStyle=0;fontSize=12;fillColor=#d5e8d4;strokeColor=#82b366;" vertex="1" parent="WIyWlLk6GJQsqaUBKTNV-1">
          <mxGeometry x="823.75" y="1360" width="143" height="40" as="geometry" />
        </mxCell>
        <mxCell id="LSCxjEW6fyr0qKY7dvI5-111" style="edgeStyle=orthogonalEdgeStyle;rounded=0;orthogonalLoop=1;jettySize=auto;html=1;entryX=1;entryY=0.5;entryDx=0;entryDy=0;fontStyle=0;fontSize=12;" edge="1" parent="WIyWlLk6GJQsqaUBKTNV-1" source="LSCxjEW6fyr0qKY7dvI5-112" target="LSCxjEW6fyr0qKY7dvI5-108">
          <mxGeometry relative="1" as="geometry" />
        </mxCell>
        <mxCell id="LSCxjEW6fyr0qKY7dvI5-112" value="pwrLibPortUserData" style="html=1;whiteSpace=wrap;fontStyle=0;fontSize=12;fillColor=#dae8fc;strokeColor=#6c8ebf;" vertex="1" parent="WIyWlLk6GJQsqaUBKTNV-1">
          <mxGeometry x="823.75" y="1300" width="143" height="40" as="geometry" />
        </mxCell>
        <mxCell id="LSCxjEW6fyr0qKY7dvI5-125" style="edgeStyle=orthogonalEdgeStyle;rounded=0;orthogonalLoop=1;jettySize=auto;html=1;entryX=1;entryY=0.5;entryDx=0;entryDy=0;" edge="1" parent="WIyWlLk6GJQsqaUBKTNV-1" source="LSCxjEW6fyr0qKY7dvI5-113" target="LSCxjEW6fyr0qKY7dvI5-13">
          <mxGeometry relative="1" as="geometry" />
        </mxCell>
        <mxCell id="LSCxjEW6fyr0qKY7dvI5-113" value="upfLibNetlistUserData" style="html=1;whiteSpace=wrap;fontStyle=0;fontSize=12;fillColor=#fff2cc;strokeColor=#d6b656;" vertex="1" parent="WIyWlLk6GJQsqaUBKTNV-1">
          <mxGeometry x="583.75" y="1440" width="135" height="40" as="geometry" />
        </mxCell>
        <mxCell id="LSCxjEW6fyr0qKY7dvI5-114" style="edgeStyle=orthogonalEdgeStyle;rounded=0;orthogonalLoop=1;jettySize=auto;html=1;fontStyle=0;fontSize=12;" edge="1" parent="WIyWlLk6GJQsqaUBKTNV-1" source="LSCxjEW6fyr0qKY7dvI5-115" target="LSCxjEW6fyr0qKY7dvI5-113">
          <mxGeometry relative="1" as="geometry" />
        </mxCell>
        <mxCell id="LSCxjEW6fyr0qKY7dvI5-115" value="dftLibNetlistUserData" style="html=1;whiteSpace=wrap;fontStyle=0;fontSize=12;fillColor=#d5e8d4;strokeColor=#82b366;" vertex="1" parent="WIyWlLk6GJQsqaUBKTNV-1">
          <mxGeometry x="823.75" y="1470" width="143" height="40" as="geometry" />
        </mxCell>
        <mxCell id="LSCxjEW6fyr0qKY7dvI5-116" style="edgeStyle=orthogonalEdgeStyle;rounded=0;orthogonalLoop=1;jettySize=auto;html=1;entryX=1;entryY=0.5;entryDx=0;entryDy=0;fontStyle=0;fontSize=12;" edge="1" parent="WIyWlLk6GJQsqaUBKTNV-1" source="LSCxjEW6fyr0qKY7dvI5-117" target="LSCxjEW6fyr0qKY7dvI5-113">
          <mxGeometry relative="1" as="geometry" />
        </mxCell>
        <mxCell id="LSCxjEW6fyr0qKY7dvI5-117" value="pwrLibNetlistUserData" style="html=1;whiteSpace=wrap;fontStyle=0;fontSize=12;fillColor=#dae8fc;strokeColor=#6c8ebf;" vertex="1" parent="WIyWlLk6GJQsqaUBKTNV-1">
          <mxGeometry x="823.75" y="1410" width="143" height="40" as="geometry" />
        </mxCell>
        <mxCell id="LSCxjEW6fyr0qKY7dvI5-126" style="edgeStyle=orthogonalEdgeStyle;rounded=0;orthogonalLoop=1;jettySize=auto;html=1;entryX=1;entryY=0.5;entryDx=0;entryDy=0;" edge="1" parent="WIyWlLk6GJQsqaUBKTNV-1" source="LSCxjEW6fyr0qKY7dvI5-118" target="LSCxjEW6fyr0qKY7dvI5-12">
          <mxGeometry relative="1" as="geometry" />
        </mxCell>
        <mxCell id="LSCxjEW6fyr0qKY7dvI5-118" value="&amp;nbsp;" style="html=1;whiteSpace=wrap;fontStyle=0;fontSize=12;fillColor=#fff2cc;strokeColor=#d6b656;" vertex="1" parent="WIyWlLk6GJQsqaUBKTNV-1">
          <mxGeometry x="583.75" y="1550" width="135" height="40" as="geometry" />
        </mxCell>
        <mxCell id="LSCxjEW6fyr0qKY7dvI5-119" style="edgeStyle=orthogonalEdgeStyle;rounded=0;orthogonalLoop=1;jettySize=auto;html=1;fontStyle=0;fontSize=12;" edge="1" parent="WIyWlLk6GJQsqaUBKTNV-1" source="LSCxjEW6fyr0qKY7dvI5-120" target="LSCxjEW6fyr0qKY7dvI5-118">
          <mxGeometry relative="1" as="geometry" />
        </mxCell>
        <mxCell id="LSCxjEW6fyr0qKY7dvI5-120" value="&amp;nbsp;" style="html=1;whiteSpace=wrap;fontStyle=0;fontSize=12;fillColor=#d5e8d4;strokeColor=#82b366;" vertex="1" parent="WIyWlLk6GJQsqaUBKTNV-1">
          <mxGeometry x="823.75" y="1580" width="143" height="40" as="geometry" />
        </mxCell>
        <mxCell id="LSCxjEW6fyr0qKY7dvI5-121" style="edgeStyle=orthogonalEdgeStyle;rounded=0;orthogonalLoop=1;jettySize=auto;html=1;entryX=1;entryY=0.5;entryDx=0;entryDy=0;fontStyle=0;fontSize=12;" edge="1" parent="WIyWlLk6GJQsqaUBKTNV-1" source="LSCxjEW6fyr0qKY7dvI5-122" target="LSCxjEW6fyr0qKY7dvI5-118">
          <mxGeometry relative="1" as="geometry" />
        </mxCell>
        <mxCell id="LSCxjEW6fyr0qKY7dvI5-122" value="&amp;nbsp;" style="html=1;whiteSpace=wrap;fontStyle=0;fontSize=12;fillColor=#dae8fc;strokeColor=#6c8ebf;" vertex="1" parent="WIyWlLk6GJQsqaUBKTNV-1">
          <mxGeometry x="823.75" y="1520" width="143" height="40" as="geometry" />
        </mxCell>
        <mxCell id="LSCxjEW6fyr0qKY7dvI5-132" style="edgeStyle=orthogonalEdgeStyle;rounded=0;orthogonalLoop=1;jettySize=auto;html=1;entryX=1;entryY=0.5;entryDx=0;entryDy=0;" edge="1" parent="WIyWlLk6GJQsqaUBKTNV-1" source="LSCxjEW6fyr0qKY7dvI5-129" target="LSCxjEW6fyr0qKY7dvI5-0">
          <mxGeometry relative="1" as="geometry">
            <Array as="points">
              <mxPoint x="250" y="1000" />
              <mxPoint x="250" y="685" />
            </Array>
          </mxGeometry>
        </mxCell>
        <mxCell id="LSCxjEW6fyr0qKY7dvI5-129" value="dftSignalUserData" style="html=1;whiteSpace=wrap;fontStyle=0;fontSize=12;fillColor=#d5e8d4;strokeColor=#82b366;" vertex="1" parent="WIyWlLk6GJQsqaUBKTNV-1">
          <mxGeometry x="823.5" y="980" width="143" height="40" as="geometry" />
        </mxCell>
        <mxCell id="LSCxjEW6fyr0qKY7dvI5-140" style="edgeStyle=orthogonalEdgeStyle;rounded=0;orthogonalLoop=1;jettySize=auto;html=1;entryX=1;entryY=0.5;entryDx=0;entryDy=0;" edge="1" parent="WIyWlLk6GJQsqaUBKTNV-1" source="LSCxjEW6fyr0qKY7dvI5-133" target="LSCxjEW6fyr0qKY7dvI5-0">
          <mxGeometry relative="1" as="geometry" />
        </mxCell>
        <mxCell id="LSCxjEW6fyr0qKY7dvI5-133" value="timNetUserDataSvc" style="html=1;whiteSpace=wrap;fontSize=12;fontStyle=0;fillColor=#f5f5f5;fontColor=#333333;strokeColor=#666666;" vertex="1" parent="WIyWlLk6GJQsqaUBKTNV-1">
          <mxGeometry x="320" y="1880" width="125" height="40" as="geometry" />
        </mxCell>
        <mxCell id="LSCxjEW6fyr0qKY7dvI5-144" value="" style="swimlane;startSize=0;dashed=1;dashPattern=8 8;" vertex="1" parent="WIyWlLk6GJQsqaUBKTNV-1">
          <mxGeometry x="290" y="1150" width="200" height="490" as="geometry" />
        </mxCell>
        <mxCell id="LSCxjEW6fyr0qKY7dvI5-157" value="libObject.h" style="text;html=1;align=center;verticalAlign=middle;resizable=0;points=[];autosize=1;strokeColor=none;fillColor=none;" vertex="1" parent="LSCxjEW6fyr0qKY7dvI5-144">
          <mxGeometry x="42.5" width="80" height="30" as="geometry" />
        </mxCell>
        <mxCell id="LSCxjEW6fyr0qKY7dvI5-145" value="" style="swimlane;startSize=0;dashed=1;dashPattern=8 8;fillColor=#f8cecc;strokeColor=#b85450;" vertex="1" parent="WIyWlLk6GJQsqaUBKTNV-1">
          <mxGeometry x="290" y="-70" width="200" height="990" as="geometry">
            <mxRectangle x="290" y="-50" width="50" height="40" as="alternateBounds" />
          </mxGeometry>
        </mxCell>
        <mxCell id="LSCxjEW6fyr0qKY7dvI5-154" value="genUserData.h" style="text;html=1;align=center;verticalAlign=middle;resizable=0;points=[];autosize=1;strokeColor=none;fillColor=none;" vertex="1" parent="LSCxjEW6fyr0qKY7dvI5-145">
          <mxGeometry x="42.5" y="10" width="100" height="30" as="geometry" />
        </mxCell>
        <mxCell id="LSCxjEW6fyr0qKY7dvI5-146" value="" style="swimlane;startSize=0;dashed=1;dashPattern=12 12;" vertex="1" parent="WIyWlLk6GJQsqaUBKTNV-1">
          <mxGeometry x="785.25" y="-70" width="284.75" height="1110" as="geometry" />
        </mxCell>
        <mxCell id="LSCxjEW6fyr0qKY7dvI5-148" value="pwrDbUserData.h&amp;nbsp; / dftDbUserData.h" style="text;html=1;align=center;verticalAlign=middle;resizable=0;points=[];autosize=1;strokeColor=none;fillColor=none;dashed=1;dashPattern=8 8;" vertex="1" parent="LSCxjEW6fyr0qKY7dvI5-146">
          <mxGeometry x="29.75" y="10" width="220" height="30" as="geometry" />
        </mxCell>
        <mxCell id="LSCxjEW6fyr0qKY7dvI5-149" value="timTransitionsUserDataSvc" style="html=1;whiteSpace=wrap;fontSize=12;fontStyle=0;fillColor=#f5f5f5;fontColor=#333333;strokeColor=#666666;" vertex="1" parent="WIyWlLk6GJQsqaUBKTNV-1">
          <mxGeometry x="320" y="2060" width="125" height="40" as="geometry" />
        </mxCell>
        <mxCell id="LSCxjEW6fyr0qKY7dvI5-151" value="timClockUserDataSvc" style="html=1;whiteSpace=wrap;fontSize=12;fontStyle=0;fillColor=#f5f5f5;fontColor=#333333;strokeColor=#666666;" vertex="1" parent="WIyWlLk6GJQsqaUBKTNV-1">
          <mxGeometry x="320" y="2160" width="125" height="40" as="geometry" />
        </mxCell>
        <mxCell id="LSCxjEW6fyr0qKY7dvI5-152" value="phyDbUserDataSvc" style="html=1;whiteSpace=wrap;fontSize=12;fontStyle=0;fillColor=#f5f5f5;fontColor=#333333;strokeColor=#666666;" vertex="1" parent="WIyWlLk6GJQsqaUBKTNV-1">
          <mxGeometry x="583.5" y="1890" width="125" height="40" as="geometry" />
        </mxCell>
        <mxCell id="LSCxjEW6fyr0qKY7dvI5-158" value="" style="swimlane;startSize=0;dashed=1;dashPattern=8 8;" vertex="1" parent="WIyWlLk6GJQsqaUBKTNV-1">
          <mxGeometry x="541.25" y="1150" width="200" height="490" as="geometry" />
        </mxCell>
        <mxCell id="LSCxjEW6fyr0qKY7dvI5-159" value="upflibObjects.h" style="text;html=1;align=center;verticalAlign=middle;resizable=0;points=[];autosize=1;strokeColor=none;fillColor=none;" vertex="1" parent="LSCxjEW6fyr0qKY7dvI5-158">
          <mxGeometry x="32.5" width="100" height="30" as="geometry" />
        </mxCell>
        <mxCell id="LSCxjEW6fyr0qKY7dvI5-160" value="" style="swimlane;startSize=0;dashed=1;dashPattern=8 8;" vertex="1" parent="WIyWlLk6GJQsqaUBKTNV-1">
          <mxGeometry x="800" y="1150" width="250" height="490" as="geometry" />
        </mxCell>
        <mxCell id="LSCxjEW6fyr0qKY7dvI5-161" value="pwrDbUserData.h&amp;nbsp; / dftDbUserData.h" style="text;html=1;align=center;verticalAlign=middle;resizable=0;points=[];autosize=1;strokeColor=none;fillColor=none;" vertex="1" parent="LSCxjEW6fyr0qKY7dvI5-160">
          <mxGeometry x="23.5" width="220" height="30" as="geometry" />
        </mxCell>
        <mxCell id="LSCxjEW6fyr0qKY7dvI5-162" value="" style="swimlane;startSize=0;dashed=1;dashPattern=12 12;" vertex="1" parent="WIyWlLk6GJQsqaUBKTNV-1">
          <mxGeometry x="551.25" y="-70" width="200" height="1000" as="geometry" />
        </mxCell>
        <mxCell id="LSCxjEW6fyr0qKY7dvI5-163" value="upfObjects.h" style="text;html=1;align=center;verticalAlign=middle;resizable=0;points=[];autosize=1;strokeColor=none;fillColor=none;dashed=1;dashPattern=8 8;" vertex="1" parent="LSCxjEW6fyr0qKY7dvI5-162">
          <mxGeometry x="48.75" y="10" width="90" height="30" as="geometry" />
        </mxCell>
        <mxCell id="LSCxjEW6fyr0qKY7dvI5-166" value="" style="swimlane;startSize=0;dashed=1;dashPattern=8 8;" vertex="1" parent="WIyWlLk6GJQsqaUBKTNV-1">
          <mxGeometry x="282.5" y="1820" width="200" height="440" as="geometry" />
        </mxCell>
        <mxCell id="LSCxjEW6fyr0qKY7dvI5-167" value="timeDbUserDataSvc" style="text;html=1;align=center;verticalAlign=middle;resizable=0;points=[];autosize=1;strokeColor=none;fillColor=none;" vertex="1" parent="LSCxjEW6fyr0qKY7dvI5-166">
          <mxGeometry x="17.5" width="130" height="30" as="geometry" />
        </mxCell>
      </root>
    </mxGraphModel>
  </diagram>
</mxfile>
